<svg width="138" height="138" viewBox="0 0 138 138" fill="none" xmlns="http://www.w3.org/2000/svg">
<path d="M59.1443 132.973C64.5882 132.973 69.0014 128.56 69.0014 123.116C69.0014 117.672 64.5882 113.259 59.1443 113.259C53.7003 113.259 49.2871 117.672 49.2871 123.116C49.2871 128.56 53.7003 132.973 59.1443 132.973Z" stroke="#494949" stroke-linecap="round" stroke-linejoin="round"/>
<path d="M103.5 132.973C108.944 132.973 113.357 128.56 113.357 123.116C113.357 117.672 108.944 113.259 103.5 113.259C98.0558 113.259 93.6426 117.672 93.6426 123.116C93.6426 128.56 98.0558 132.973 103.5 132.973Z" stroke="#494949" stroke-linecap="round" stroke-linejoin="round"/>
<path d="M82.6035 34.7957C81.0908 28.7192 78.1525 23.0904 74.0319 18.3752C69.9114 13.6599 64.727 9.99399 58.9079 7.68076C53.0888 5.36753 46.8025 4.47355 40.5693 5.07283C34.336 5.67211 28.3352 7.74741 23.0634 11.1269C17.7917 14.5065 13.4007 19.093 10.254 24.5069C7.10721 29.9208 5.29521 36.0064 4.96795 42.2598C4.64069 48.5133 5.80758 54.7547 8.37203 60.4675C10.9365 66.1803 14.8247 71.2001 19.7149 75.1115M44.3578 44.4557L59.1435 29.67M64.0721 93.6429V83.7857H49.2863C44.0578 83.7857 39.0434 85.8628 35.3462 89.5599C31.6491 93.2571 29.5721 98.2715 29.5721 103.5V123.214" stroke="#494949" stroke-linecap="round" stroke-linejoin="round"/>
<path d="M133.072 123.116V73.83C133.072 71.2158 132.034 68.7086 130.185 66.86C128.337 65.0114 125.829 63.9729 123.215 63.9729H73.9294C71.3151 63.9729 68.8079 65.0114 66.9594 66.86C65.1108 68.7086 64.0723 71.2158 64.0723 73.83V93.5443" stroke="#494949" stroke-linecap="round" stroke-linejoin="round"/>
</svg>
