<svg width="138" height="138" viewBox="0 0 138 138" fill="none" xmlns="http://www.w3.org/2000/svg">
<path d="M43.7123 125.43C36.2369 117.47 31.1827 107.546 29.141 96.8189C27.0993 86.0915 28.1544 75.0045 32.183 64.8549C36.2116 54.7053 43.0471 45.9127 51.8899 39.5056C60.7326 33.0985 71.217 29.3419 82.1165 28.6752" stroke="#494949" stroke-linecap="round" stroke-linejoin="round"/>
<path d="M69 130.812C103.138 130.812 130.812 103.138 130.812 69C130.812 34.8619 103.138 7.1875 69 7.1875C34.8619 7.1875 7.1875 34.8619 7.1875 69C7.1875 103.138 34.8619 130.812 69 130.812Z" stroke="#494949" stroke-linecap="round" stroke-linejoin="round"/>
<path d="M93.4294 29.1008C105.529 30.7572 116.787 36.2231 125.572 44.7063M90.2755 64.216C95.1852 64.0272 100.038 65.3227 104.2 67.9334C108.362 70.5442 111.641 74.349 113.608 78.8514C115.575 83.3537 116.14 88.3445 115.227 93.1724C114.315 98.0003 111.969 102.441 108.495 105.915C105.021 109.39 100.58 111.736 95.7518 112.648C90.9239 113.56 85.9331 112.996 81.4308 111.029C76.9284 109.062 73.1236 105.783 70.5128 101.621C67.902 97.4585 66.6066 92.6058 66.7954 87.6961L67.2554 76.7194" stroke="#494949" stroke-linecap="round" stroke-linejoin="round"/>
<path d="M53.0645 88.1877L67.2555 76.7194L81.4436 88.3832" stroke="#494949" stroke-linecap="round" stroke-linejoin="round"/>
</svg>
