<svg width="105" height="105" viewBox="0 0 105 105" fill="none" xmlns="http://www.w3.org/2000/svg">
<path d="M43.9949 4.92104C45.0657 3.72512 46.3767 2.76846 47.8423 2.11351C49.3079 1.45855 50.8951 1.12003 52.5003 1.12003C54.1056 1.12003 55.6928 1.45855 57.1584 2.11351C58.624 2.76846 59.935 3.72512 61.0058 4.92104L65.0016 9.38496C66.1436 10.6607 67.558 11.6633 69.14 12.3184C70.7219 12.9736 72.431 13.2645 74.1406 13.1696L80.1344 12.8385C81.7375 12.7501 83.3413 13.0009 84.841 13.5744C86.3406 14.148 87.7025 15.0314 88.8375 16.167C89.9726 17.3026 90.8553 18.6648 91.4282 20.1647C92.001 21.6647 92.251 23.2686 92.1619 24.8717L91.8308 30.8597C91.7368 32.5684 92.0281 34.2764 92.6832 35.8573C93.3383 37.4382 94.3404 38.8516 95.6154 39.993L100.079 43.9889C101.276 45.0597 102.234 46.371 102.889 47.8371C103.545 49.3032 103.884 50.8912 103.884 52.4972C103.884 54.1031 103.545 55.691 102.889 57.1572C102.234 58.6233 101.276 59.9346 100.079 61.0054L95.6154 65.0012C94.3396 66.1433 93.337 67.5576 92.6819 69.1396C92.0268 70.7216 91.7359 72.4307 91.8308 74.1403L92.1619 80.134C92.2502 81.7372 91.9995 83.341 91.4259 84.8406C90.8524 86.3403 89.969 87.7021 88.8334 88.8372C87.6978 89.9722 86.3355 90.855 84.8356 91.4278C83.3357 92.0006 81.7318 92.2506 80.1287 92.1615L74.1406 91.8304C72.432 91.7364 70.724 92.0277 69.1431 92.6828C67.5621 93.3379 66.1487 94.34 65.0073 95.615L61.0115 100.079C59.9406 101.276 58.6293 102.233 57.1632 102.889C55.6971 103.544 54.1092 103.883 52.5032 103.883C50.8972 103.883 49.3093 103.544 47.8432 102.889C46.3771 102.233 45.0658 101.276 43.9949 100.079L39.9991 95.615C38.8571 94.3393 37.4427 93.3367 35.8607 92.6816C34.2788 92.0264 32.5697 91.7355 30.8601 91.8304L24.8663 92.1615C23.2632 92.2499 21.6594 91.9991 20.1597 91.4256C18.6601 90.852 17.2982 89.9686 16.1632 88.833C15.0281 87.6974 14.1454 86.3352 13.5725 84.8353C12.9997 83.3353 12.7497 81.7315 12.8388 80.1283L13.1699 74.1403C13.2639 72.4316 12.9726 70.7236 12.3175 69.1427C11.6624 67.5618 10.6603 66.1484 9.38531 65.007L4.92139 61.0111C3.72453 59.9403 2.76706 58.629 2.11154 57.1629C1.45602 55.6968 1.11719 54.1088 1.11719 52.5029C1.11719 50.8969 1.45602 49.309 2.11154 47.8429C2.76706 46.3767 3.72453 45.0654 4.92139 43.9946L9.38531 39.9988C10.6611 38.8567 11.6637 37.4424 12.3188 35.8604C12.9739 34.2784 13.2648 32.5693 13.1699 30.8597L12.8388 24.866C12.7513 23.2633 13.0027 21.6601 13.5766 20.1612C14.1505 18.6622 15.0341 17.3011 16.1696 16.1667C17.3051 15.0322 18.667 14.15 20.1665 13.5775C21.666 13.005 23.2694 12.7551 24.872 12.8442L30.8601 13.1753C32.5687 13.2693 34.2767 12.978 35.8576 12.3229C37.4386 11.6678 38.852 10.6657 39.9934 9.39067L43.9892 4.92675L43.9949 4.92104Z" stroke="#494949" stroke-width="2"/>
<path d="M38.2305 38.2292H38.2876V38.2863H38.2305V38.2292ZM66.7721 66.7709H66.8292V66.8279H66.7721V66.7709Z" stroke="#494949" stroke-width="3" stroke-linejoin="round"/>
<path d="M69.625 35.375L35.375 69.625" stroke="#494949" stroke-width="2" stroke-linecap="round" stroke-linejoin="round"/>
</svg>
