<svg width="130" height="130" viewBox="0 0 130 130" fill="none" xmlns="http://www.w3.org/2000/svg">
<path d="M35.6245 118.408V94.3692C35.6245 88.4758 40.4074 83.6929 46.3062 83.6929V51.6479C46.3062 51.6479 38.2949 46.3125 24.9483 46.3125C11.5962 46.3125 3.58492 51.6533 3.58492 51.6533V83.6983C9.48367 83.6983 14.2666 88.4813 14.2666 94.38V118.408M83.692 118.408V98.8271C83.692 94.0225 87.2778 90.1225 91.7033 90.1225V64.0142C91.7033 64.0142 85.6908 59.6646 75.6808 59.6646C65.6653 59.6646 59.6583 64.0142 59.6583 64.0142V90.1225C64.0837 90.1225 67.6749 94.0225 67.6749 98.8271V118.408M129.078 3.58585H0.919922M129.078 126.414H0.919922M115.732 16.9379V113.062C115.732 111.15 114.637 108.767 113.495 106.806C111.968 104.217 110.003 101.913 107.688 99.9971C105.911 98.5129 103.799 97.045 102.38 97.045M115.732 16.9379C115.732 18.85 116.831 21.2333 117.974 23.1942C119.496 25.8104 121.495 28.0908 123.781 30.0029C125.557 31.4871 127.67 32.955 129.089 32.955M115.732 16.9379C115.732 18.85 114.637 21.2333 113.495 23.1942C111.972 25.8104 109.974 28.0908 107.688 30.0029C105.911 31.4871 103.799 32.955 102.38 32.955M115.732 113.068C115.732 111.15 116.831 108.767 117.974 106.806C119.496 104.19 121.495 101.909 123.781 99.9971C125.557 98.5129 127.67 97.045 129.089 97.045M24.1466 35.6254C24.1466 35.6254 15.5991 30.2846 15.5991 23.6167C15.5991 18.4546 19.7862 14.2729 24.9483 14.2729C30.1103 14.2729 34.2649 18.4546 34.2649 23.6167C34.2649 30.29 25.7445 35.6308 25.7445 35.6308L24.1466 35.6254ZM75.0037 50.3154C75.0037 50.3154 67.6695 45.6408 67.6695 39.8017C67.6695 35.2842 71.2608 31.6225 75.6862 31.6225C80.117 31.6225 83.692 35.2842 83.692 39.8017C83.692 45.6408 76.3795 50.31 76.3795 50.31L75.0037 50.3154Z" stroke="#494949"/>
</svg>
