<svg width="138" height="138" viewBox="0 0 138 138" fill="none" xmlns="http://www.w3.org/2000/svg">
<path d="M26.9955 70.0062H66.1243C66.8868 70.0062 67.6181 70.3091 68.1572 70.8483C68.6964 71.3875 68.9993 72.1187 68.9993 72.8812V87.2562H24.0918V72.8812C24.0918 72.5013 24.1671 72.125 24.3134 71.7743C24.4596 71.4237 24.674 71.1054 24.944 70.8381C25.214 70.5707 25.5344 70.3596 25.8865 70.2168C26.2386 70.074 26.6156 70.0024 26.9955 70.0062Z" stroke="#494949" stroke-linecap="round" stroke-linejoin="round"/>
<path d="M24.0918 72.91V43.93C24.0918 42.8548 24.5188 41.8238 25.2791 41.0635C26.0393 40.3033 27.0704 39.8762 28.1455 39.8762H64.9455C66.0206 39.8762 67.0517 40.3033 67.8119 41.0635C68.5722 41.8238 68.9993 42.8548 68.9993 43.93M68.9993 43.93V72.91M68.9993 43.93C68.9993 42.8548 69.4263 41.8238 70.1866 41.0635C70.9468 40.3033 71.9779 39.8762 73.053 39.8762H109.853C110.928 39.8762 111.959 40.3033 112.719 41.0635C113.48 41.8238 113.907 42.8548 113.907 43.93V72.91M15.4093 56.2637H21.6193C22.275 56.2637 22.9039 56.5242 23.3676 56.9879C23.8313 57.4516 24.0918 58.0805 24.0918 58.7362V87.4862H16.013C15.6017 87.4864 15.1945 87.4041 14.8155 87.2441C14.4365 87.0841 14.0935 86.8498 13.8067 86.5549C13.5199 86.2601 13.2951 85.9107 13.1457 85.5275C12.9963 85.1442 12.9252 84.7349 12.9368 84.3237V58.7362C12.9368 58.0805 13.1973 57.4516 13.6609 56.9879C14.1246 56.5242 14.7535 56.2637 15.4093 56.2637ZM121.986 87.4287H113.907V58.6787C113.907 58.023 114.167 57.3941 114.631 56.9304C115.095 56.4667 115.724 56.2062 116.379 56.2062H122.589C123.245 56.2062 123.874 56.4667 124.338 56.9304C124.801 57.3941 125.062 58.023 125.062 58.6787V84.2662C125.062 85.0821 124.738 85.8646 124.161 86.4415C123.584 87.0184 122.801 87.3425 121.986 87.3425V87.4287Z" stroke="#494949" stroke-linecap="round" stroke-linejoin="round"/>
<path d="M71.8743 70.0062H111.003C111.766 70.0062 112.497 70.3091 113.036 70.8483C113.575 71.3875 113.878 72.1187 113.878 72.8812V87.2562H68.9993V72.8812C68.9993 72.1187 69.3022 71.3875 69.8414 70.8483C70.3805 70.3091 71.1118 70.0062 71.8743 70.0062ZM24.0918 87.4287H32.918V98.1525H24.0918V87.4287ZM105.081 87.4287H113.907V98.1525H105.081V87.4287Z" stroke="#494949" stroke-linecap="round" stroke-linejoin="round"/>
</svg>
