<svg width="24" height="22" viewBox="0 0 24 22" fill="none" xmlns="http://www.w3.org/2000/svg">
<path d="M0.856934 21.1428H23.1426M5.14265 1.30856L7.50836 2.23428C7.67048 2.29374 7.80859 2.40478 7.9015 2.55033C7.9944 2.69589 8.03696 2.86791 8.02265 3.03999L7.71408 6.12571L17.7255 8.43999C18.5557 8.57258 19.3469 8.88476 20.0439 9.35472C20.741 9.82468 21.327 10.4411 21.7612 11.161C22.1955 11.8808 22.4673 12.6868 22.5579 13.5226C22.6484 14.3584 22.5555 15.2038 22.2855 16C22.2083 16.1906 22.0943 16.3641 21.9498 16.5105C21.8053 16.6568 21.6334 16.7732 21.4438 16.8528C21.2542 16.9325 21.0507 16.9739 20.8451 16.9746C20.6394 16.9754 20.4357 16.9354 20.2455 16.8571L14.3312 14.5428L13.7141 14.32L10.2855 16.6171C10.1675 16.6941 10.033 16.7419 9.89295 16.7568C9.7529 16.7717 9.61131 16.7532 9.47979 16.7028L6.85693 15.6571C6.71785 15.6033 6.59523 15.5141 6.50119 15.3983C6.40714 15.2826 6.34493 15.1443 6.32069 14.9971C6.29645 14.85 6.31103 14.699 6.36298 14.5592C6.41494 14.4194 6.50247 14.2956 6.61693 14.2L8.81122 12.3828L8.41693 12.2286L2.63979 9.99999C2.44575 9.93125 2.26743 9.82436 2.11533 9.68564C1.96324 9.54692 1.84044 9.37916 1.75417 9.19225C1.66791 9.00534 1.61992 8.80306 1.61303 8.59732C1.60615 8.39158 1.6405 8.18654 1.71408 7.99428L4.18265 1.71999C4.25866 1.54079 4.401 1.39792 4.57992 1.32124C4.75883 1.24456 4.96046 1.24002 5.14265 1.30856Z" stroke="currentColor" stroke-linecap="round" stroke-linejoin="round"/>
</svg>
