<svg width="24" height="22" viewBox="0 0 24 22" fill="none" xmlns="http://www.w3.org/2000/svg">
<path d="M23.1431 21.1431H0.857352M1.38878 4.48022L3.73735 3.72593C3.89524 3.67669 4.0646 3.67834 4.2215 3.73064C4.37839 3.78293 4.51487 3.88324 4.61164 4.01736L6.22307 6.57164L15.0688 2.16593C15.7663 1.7569 16.5447 1.50508 17.3496 1.42808C18.1545 1.35107 18.9665 1.45074 19.7289 1.7201C20.4912 1.98947 21.1856 2.42204 21.7635 2.98761C22.3414 3.55317 22.7888 4.23809 23.0745 4.9945C23.1924 5.37641 23.1539 5.7895 22.9675 6.14306C22.781 6.49661 22.4619 6.76174 22.0802 6.88021L16.2688 8.76593L15.6859 8.9545L14.5888 12.7088C14.5554 12.8385 14.4889 12.9573 14.3957 13.0535C14.3025 13.1496 14.1859 13.2199 14.0574 13.2574L11.4174 14.1145C11.2788 14.1744 11.1265 14.195 10.977 14.1741C10.8275 14.1532 10.6867 14.0916 10.5699 13.996C10.4531 13.9004 10.3648 13.7746 10.3147 13.6322C10.2646 13.4898 10.2547 13.3364 10.2859 13.1888L10.8345 10.5145L10.4574 10.6345L4.78307 12.4688C4.59971 12.5368 4.40466 12.5676 4.20927 12.5595C4.01387 12.5514 3.82205 12.5045 3.64496 12.4216C3.46787 12.3386 3.30905 12.2212 3.17776 12.0763C3.04646 11.9314 2.94532 11.7618 2.88021 11.5774L0.891638 5.40593C0.837858 5.21728 0.859688 5.01509 0.952501 4.84227C1.04531 4.66944 1.20181 4.53958 1.38878 4.48022Z" stroke="currentColor" stroke-linecap="round" stroke-linejoin="round"/>
</svg>
