<svg width="61" height="61" viewBox="0 0 61 61" fill="none" xmlns="http://www.w3.org/2000/svg">
<path d="M18.5664 17.5312H15.8477L21.957 31.6094C22.8945 29.2448 23.832 26.8906 24.7695 24.5469C25.7174 22.2031 26.6602 19.8542 27.5977 17.5L23.5977 17.4375V16.8594L31.7539 16.9531V17.5312L28.1602 17.5L19.2695 39.8281L9.31641 17.5312H6.44141V16.9531H18.5664V17.5312ZM40.4258 38.4219H42.8008L40.582 33.1406H33.5195L31.4102 38.5156H35.4414V39H27.2383V38.4531H30.832L36.6445 23.8281L39.7227 16.0938L49.6758 38.4219H52.5508V39H40.4258V38.4219ZM33.7383 32.5625H40.332L36.9414 24.5625L33.7383 32.5625Z" fill="#000000"/>
<path fill-rule="evenodd" clip-rule="evenodd" d="M59.8387 1V9.19177H58.8387V1L1 0.999995L0.999997 60H59.019V50.9726H60.019V60.1644H59.8387V61H0.999997H-2.66639e-06L0 60V0.999995V0V-5.33279e-06L58.8387 -8.53851e-06L59.8387 -8.58307e-06V1Z" fill="#000000"/>
</svg>
